<svg id="Seal" xmlns="http://www.w3.org/2000/svg" viewBox="0 0 1366 768">
    <defs>
        <style>
            .cls-1{font-size:123.04px; fill:#ccc;}
            .cls-1,.cls-4{font-family:ArbutusSlab-Regular, Arbutus Slab; fill:#ccc;}
            .cls-2,.cls-3{fill:none;stroke:#ccc;stroke-miterlimit:10;}
            .cls-2{stroke-width:2.14px;}
            .cls-3{stroke-width:0.85px;}
            .cls-4,.cls-5,.cls-6{font-size:19.45px; fill:#ccc;}
            .cls-5{font-family:ArialMT, Arial; fill:#ccc;}
            .cls-6{font-family:MyriadPro-Regular, Myriad Pro; fill:#ccc;}
        </style>
    </defs>
    <title>2-1</title><text class="cls-1" transform="matrix(0.95, -0.3, 0.3, 0.95, 100.97, 528.54)">HL</text><circle class="cls-2" cx="166.99" cy="457.51" r="142.48"/><circle class="cls-3" cx="169.05" cy="460.14" r="117.28"/><text class="cls-4" transform="translate(292.5 463.1) rotate(95.13)">H</text><text class="cls-4" transform="translate(291 478.6) rotate(101.26)">u</text><text class="cls-4" transform="translate(288.82 489.39) rotate(105.85)">s</text><text class="cls-4" transform="matrix(-0.34, 0.94, -0.94, -0.34, 286.37, 498.06)">s</text><text class="cls-4" transform="matrix(-0.42, 0.91, -0.91, -0.42, 283.34, 506.53)">a</text><text class="cls-4" transform="matrix(-0.48, 0.88, -0.88, -0.48, 278.74, 516.4)">i</text><text class="cls-4" transform="matrix(-0.54, 0.84, -0.84, -0.54, 275.91, 521.86)">n</text><text class="cls-4" transform="translate(269.4 531.83) rotate(126.88)"> </text><text class="cls-4" transform="matrix(-0.66, 0.75, -0.75, -0.66, 265.74, 536.9)">L</text><text class="cls-4" transform="matrix(-0.72, 0.69, -0.69, -0.72, 257.98, 545.79)">o</text><text class="cls-4" transform="matrix(-0.78, 0.62, -0.62, -0.78, 250.2, 553.25)">d</text><text class="cls-4" transform="matrix(-0.83, 0.55, -0.55, -0.83, 241.38, 560.27)">g</text><text class="cls-4" transform="translate(232.33 566.23) rotate(151.48)">e</text><text class="cls-4" transform="translate(223.17 571.14) rotate(155.27)"> </text><text class="cls-5" transform="matrix(-0.93, 0.36, -0.36, -0.93, 217.52, 573.82)">♠</text><text class="cls-5" transform="matrix(-0.95, 0.3, -0.3, -0.95, 208.04, 577.38)"> </text><text class="cls-5" transform="matrix(-0.97, 0.24, -0.24, -0.97, 203.1, 579.02)">♠</text><text class="cls-5" transform="matrix(-0.98, 0.18, -0.18, -0.98, 193.26, 581.38)"> </text><text class="cls-4" transform="translate(188.16 582.41) rotate(173.48)">S</text><text class="cls-4" transform="translate(177.21 583.59) rotate(177.48)">i</text><text class="cls-4" transform="translate(171.08 583.97) rotate(-178.33)">n</text><text class="cls-4" transform="matrix(-0.99, -0.12, 0.12, -0.99, 159.21, 583.59)">c</text><text class="cls-4" transform="translate(149.54 582.48) rotate(-168.7)">e</text><text class="cls-4" transform="translate(139.39 580.39) rotate(-164.87)"> </text><text class="cls-4" transform="translate(133.29 578.76) rotate(-161.68)">1</text><text class="cls-4" transform="translate(126.13 576.49) rotate(-157.23)">9</text><text class="cls-4" transform="translate(115.28 571.95) rotate(-151.81)">6</text><text class="cls-4" transform="translate(104.89 566.39) rotate(-146.41)">8</text><text class="cls-5" transform="translate(95.25 559.87) rotate(-142.51)"> </text><text class="cls-5" transform="matrix(-0.75, -0.66, 0.66, -0.75, 91.08, 556.77)">♠</text><text class="cls-6" transform="matrix(-0.72, -0.7, 0.7, -0.72, 83.48, 550.05)"> </text><text class="cls-4" transform="translate(80.57 547.47) rotate(-131.52)">C</text><text class="cls-4" transform="translate(71.44 537.05) rotate(-125.9)">e</text><text class="cls-4" transform="matrix(-0.53, -0.85, 0.85, -0.53, 65.41, 528.61)">l</text><text class="cls-4" transform="translate(62.13 523.53) rotate(-118.33)">e</text><text class="cls-4" transform="matrix(-0.4, -0.92, 0.92, -0.4, 57.21, 514.47)">b</text><text class="cls-4" transform="translate(52.71 503.94) rotate(-108.85)">r</text><text class="cls-4" transform="matrix(-0.25, -0.97, 0.97, -0.25, 49.98, 496.14)">a</text><text class="cls-4" transform="matrix(-0.17, -0.98, 0.98, -0.17, 47.33, 485.58)">t</text><text class="cls-4" transform="matrix(-0.12, -0.99, 0.99, -0.12, 45.99, 477.95)">i</text><text class="cls-4" transform="translate(45.14 471.88) rotate(-92.62)">n</text><text class="cls-4" transform="translate(44.61 460.04) rotate(-87.36)">g</text><text class="cls-4" transform="translate(45.19 449.15) rotate(-83.38)"> </text><text class="cls-4" transform="translate(45.8 442.93) rotate(-79.28)">5</text><text class="cls-4" transform="translate(47.87 431.67) rotate(-73.54)">0</text><text class="cls-4" transform="translate(51.85 418.68) rotate(-68.98)"> </text><text class="cls-4" transform="matrix(0.43, -0.9, 0.9, 0.43, 53.96, 412.81)">Y</text><text class="cls-4" transform="translate(59.41 401.41) rotate(-59.34)">e</text><text class="cls-4" transform="translate(64.66 392.51) rotate(-54.43)">a</text><text class="cls-4" transform="matrix(0.64, -0.77, 0.77, 0.64, 71.02, 383.69)">r</text><text class="cls-4" transform="matrix(0.7, -0.72, 0.72, 0.7, 76.33, 377.34)">s</text><text class="cls-4" transform="matrix(0.74, -0.67, 0.67, 0.74, 82.63, 370.87)"> </text><text class="cls-4" transform="translate(87.1 366.54) rotate(-37.53)">O</text><text class="cls-4" transform="matrix(0.84, -0.54, 0.54, 0.84, 98.78, 357.75)">f</text><text class="cls-4" transform="matrix(0.87, -0.49, 0.49, 0.87, 105.15, 353.72)"> </text><text class="cls-4" transform="matrix(0.9, -0.43, 0.43, 0.9, 110.56, 350.59)">S</text><text class="cls-4" transform="translate(120.5 345.89) rotate(-20.42)">e</text><text class="cls-4" transform="translate(130.23 342.3) rotate(-16.1)">r</text><text class="cls-4" transform="translate(138.18 339.97) rotate(-11.88)">v</text><text class="cls-4" transform="translate(147.85 337.99) rotate(-8.14)">i</text><text class="cls-4" transform="translate(153.91 337.05) rotate(-4.43)">c</text><text class="cls-4" transform="translate(163.6 336.28) rotate(0.23)">e</text><text class="cls-4" transform="matrix(1, 0.07, -0.07, 1, 173.99, 336.38)"> </text><text class="cls-5" transform="translate(180.24 336.76) rotate(7.88)">♠</text><text class="cls-5" transform="translate(190.25 338.22) rotate(11.41)"> </text><text class="cls-4" transform="translate(195.35 339.05) rotate(15.92)">G</text><text class="cls-4" transform="translate(209.13 343.05) rotate(21.68)">o</text><text class="cls-4" transform="translate(219.18 347.13) rotate(25.57)">l</text><text class="cls-4" transform="translate(224.66 349.64) rotate(29.58)">d</text><text class="cls-4" transform="translate(234.47 355.22) rotate(34.57)">e</text><text class="cls-4" transform="matrix(0.77, 0.64, -0.64, 0.77, 242.97, 361.02)">n</text><text class="cls-4" transform="translate(252.1 368.72) rotate(43.96)"> </text><text class="cls-4" transform="matrix(0.67, 0.75, -0.75, 0.67, 256.66, 372.97)">J</text><text class="cls-4" transform="matrix(0.59, 0.8, -0.8, 0.59, 264.55, 381.79)">u</text><text class="cls-4" transform="matrix(0.52, 0.85, -0.85, 0.52, 271.11, 390.62)">b</text><text class="cls-4" transform="matrix(0.46, 0.89, -0.89, 0.46, 277.01, 400.48)">i</text><text class="cls-4" transform="matrix(0.41, 0.91, -0.91, 0.41, 279.85, 405.98)">l</text><text class="cls-4" transform="translate(282.43 411.46) rotate(69.27)">e</text><text class="cls-4" transform="translate(286.09 421.09) rotate(74.04)">e</text><text class="cls-4" transform="translate(288.88 431.09) rotate(77.92)"> </text><text class="cls-5" transform="matrix(0.14, 0.99, -0.99, 0.14, 290.27, 437.21)">♠</text><text class="cls-5" transform="translate(291.65 447.25) rotate(85.32)"> </text></svg>