<svg xmlns="http://www.w3.org/2000/svg" viewBox="0 0 1366 768"><defs><style>.cls-1{fill:#00f261;}.cls-2{fill:#005bea;}.cls-3{font-size:95.64px;}.cls-3,.cls-6,.cls-7,.cls-8{fill:#fff;}.cls-3,.cls-6{font-family:ArbutusSlab-Regular, Arbutus Slab;}.cls-4,.cls-5{fill:none;stroke:#fff;stroke-miterlimit:10;}.cls-4{stroke-width:1.66px;}.cls-5{stroke-width:0.66px;}.cls-6,.cls-7,.cls-8{font-size:15.12px;}.cls-7{font-family:ArialMT, Arial;}.cls-8{font-family:MyriadPro-Regular, Myriad Pro;}</style></defs><title>2-1</title><g id="Layer_2" data-name="Layer 2"><polygon class="cls-1" points="89 736 129.12 685.93 182.14 700.93 197.38 600 273 615 273 524 319 449 247.28 407 234.81 314 152.95 326 123.33 240 73.43 270 33.67 198 -17 242 -17 495 -28.6 701.12 10 763 46 717 89 736"/><polygon class="cls-2" points="79 725 119.12 674.93 172.14 689.93 187.38 589 263 604 263 513 309 438 237.28 396 224.81 303 142.95 315 113.33 229 63.43 259 23.67 187 -27 231 -27 484 -38.6 690.12 0 752 36 706 79 725"/></g><g id="Seal"><text class="cls-3" transform="matrix(0.87, -0.49, 0.49, 0.87, 96.64, 553.99)">HL</text><circle class="cls-4" cx="135.25" cy="489.25" r="110.75"/><circle class="cls-5" cx="137.24" cy="490.91" r="91.16"/><text class="cls-6" transform="translate(231.55 472.98) rotate(82.98)">H</text><text class="cls-6" transform="matrix(0.02, 1, -1, 0.02, 232.95, 484.97)">u</text><text class="cls-6" transform="translate(233.06 493.56) rotate(93.7)">s</text><text class="cls-6" transform="translate(232.61 500.55) rotate(97.85)">s</text><text class="cls-6" transform="translate(231.7 507.48) rotate(102.42)">a</text><text class="cls-6" transform="translate(229.82 515.73) rotate(106.34)">i</text><text class="cls-6" transform="translate(228.56 520.34) rotate(110.52)">n</text><text class="cls-6" transform="translate(225.25 528.99) rotate(114.72)"> </text><text class="cls-6" transform="translate(223.29 533.44) rotate(118.94)">L</text><text class="cls-6" transform="translate(218.83 541.49) rotate(124.22)">o</text><text class="cls-6" transform="matrix(-0.63, 0.77, -0.77, -0.63, 214.15, 548.41)">d</text><text class="cls-6" transform="translate(208.6 555.19) rotate(134.47)">g</text><text class="cls-6" transform="translate(202.69 561.2) rotate(139.34)">e</text><text class="cls-6" transform="matrix(-0.8, 0.6, -0.6, -0.8, 196.54, 566.42)"> </text><text class="cls-7" transform="translate(192.66 569.4) rotate(146.88)">♠</text><text class="cls-7" transform="translate(186.04 573.66) rotate(150.43)"> </text><text class="cls-7" transform="translate(182.54 575.72) rotate(154)">♠</text><text class="cls-7" transform="translate(175.44 579.12) rotate(157.57)"> </text><text class="cls-6" transform="translate(171.78 580.72) rotate(161.34)">S</text><text class="cls-6" transform="translate(163.62 583.41) rotate(165.34)">i</text><text class="cls-6" transform="translate(159.01 584.71) rotate(169.55)">n</text><text class="cls-6" transform="matrix(-1, 0.09, -0.09, -1, 149.93, 586.35)">c</text><text class="cls-6" transform="translate(142.38 587.09) rotate(179.19)">e</text><text class="cls-6" transform="translate(134.33 587.16) rotate(-176.98)"> </text><text class="cls-6" transform="translate(129.45 586.92) rotate(-173.8)">1</text><text class="cls-6" transform="translate(123.65 586.36) rotate(-169.36)">9</text><text class="cls-6" transform="matrix(-0.96, -0.28, 0.28, -0.96, 114.63, 584.68)">6</text><text class="cls-6" transform="translate(105.84 582.15) rotate(-158.53)">8</text><text class="cls-7" transform="translate(97.44 578.76) rotate(-154.62)"> </text><text class="cls-7" transform="matrix(-0.88, -0.48, 0.48, -0.88, 93.76, 577.09)">♠</text><text class="cls-8" transform="translate(86.89 573.21) rotate(-147.78)"> </text><text class="cls-6" transform="matrix(-0.81, -0.59, 0.59, -0.81, 84.26, 571.73)">C</text><text class="cls-6" transform="translate(75.62 565.3) rotate(-138.01)">e</text><text class="cls-6" transform="translate(69.65 559.85) rotate(-134.19)">l</text><text class="cls-6" transform="matrix(-0.65, -0.76, 0.76, -0.65, 66.34, 556.54)">e</text><text class="cls-6" transform="matrix(-0.58, -0.81, 0.81, -0.58, 61.1, 550.43)">b</text><text class="cls-6" transform="translate(55.98 543.17) rotate(-120.95)">r</text><text class="cls-6" transform="translate(52.62 537.67) rotate(-116.49)">a</text><text class="cls-6" transform="translate(48.88 530.08) rotate(-112.16)">t</text><text class="cls-6" transform="translate(46.63 524.51) rotate(-108.92)">i</text><text class="cls-6" transform="translate(44.99 520) rotate(-104.7)">n</text><text class="cls-6" transform="translate(42.66 511.11) rotate(-99.45)">g</text><text class="cls-6" transform="matrix(-0.1, -1, 1, -0.1, 41.33, 502.74)"> </text><text class="cls-6" transform="matrix(-0.02, -1, 1, -0.02, 40.78, 497.91)">5</text><text class="cls-6" transform="matrix(0.08, -1, 1, 0.08, 40.52, 489)">0</text><text class="cls-6" transform="translate(41.43 478.5) rotate(-81.07)"> </text><text class="cls-6" transform="translate(42.08 473.69) rotate(-76.7)">Y</text><text class="cls-6" transform="translate(44.38 464.11) rotate(-71.4)">e</text><text class="cls-6" transform="translate(46.93 456.49) rotate(-66.49)">a</text><text class="cls-6" transform="translate(50.33 448.74) rotate(-62.05)">r</text><text class="cls-6" transform="matrix(0.53, -0.85, 0.85, 0.53, 53.33, 443.06)">s</text><text class="cls-6" transform="matrix(0.58, -0.81, 0.81, 0.58, 57.07, 437.12)"> </text><text class="cls-6" transform="translate(59.77 433.08) rotate(-49.58)">O</text><text class="cls-6" transform="matrix(0.71, -0.7, 0.7, 0.71, 67.22, 424.51)">f</text><text class="cls-6" transform="matrix(0.75, -0.66, 0.66, 0.75, 71.4, 420.42)"> </text><text class="cls-6" transform="translate(75.02 417.15) rotate(-37.35)">S</text><text class="cls-6" transform="matrix(0.84, -0.54, 0.54, 0.84, 81.83, 411.95)">e</text><text class="cls-6" transform="translate(88.62 407.66) rotate(-28.16)">r</text><text class="cls-6" transform="translate(94.27 404.6) rotate(-23.94)">v</text><text class="cls-6" transform="translate(101.3 401.52) rotate(-20.21)">i</text><text class="cls-6" transform="matrix(0.96, -0.28, 0.28, 0.96, 105.79, 399.82)">c</text><text class="cls-6" transform="translate(113.03 397.66) rotate(-11.82)">e</text><text class="cls-6" transform="translate(120.94 396.05) rotate(-7.95)"> </text><text class="cls-7" transform="matrix(1, -0.07, 0.07, 1, 125.77, 395.32)">♠</text><text class="cls-7" transform="translate(133.6 394.81) rotate(-0.64)"> </text><text class="cls-6" transform="matrix(1, 0.07, -0.07, 1, 137.62, 394.61)">G</text><text class="cls-6" transform="translate(148.73 395.42) rotate(9.64)">o</text><text class="cls-6" transform="translate(157.04 396.89) rotate(13.53)">l</text><text class="cls-6" transform="matrix(0.95, 0.3, -0.3, 0.95, 161.63, 397.92)">d</text><text class="cls-6" transform="translate(169.98 400.56) rotate(22.53)">e</text><text class="cls-6" transform="translate(177.41 403.6) rotate(27.69)">n</text><text class="cls-6" transform="matrix(0.85, 0.53, -0.53, 0.85, 185.57, 407.97)"> </text><text class="cls-6" transform="translate(189.74 410.47) rotate(36.15)">J</text><text class="cls-6" transform="translate(197.18 415.91) rotate(41.48)">u</text><text class="cls-6" transform="translate(203.6 421.56) rotate(46.66)">b</text><text class="cls-6" transform="matrix(0.63, 0.77, -0.77, 0.63, 209.68, 428.1)">i</text><text class="cls-6" transform="translate(212.73 431.82) rotate(53.49)">l</text><text class="cls-6" transform="matrix(0.54, 0.84, -0.84, 0.54, 215.58, 435.57)">e</text><text class="cls-6" transform="matrix(0.47, 0.88, -0.88, 0.47, 219.94, 442.33)">e</text><text class="cls-6" transform="translate(223.68 449.48) rotate(65.92)"> </text><text class="cls-7" transform="matrix(0.35, 0.94, -0.94, 0.35, 225.7, 453.88)">♠</text><text class="cls-7" transform="translate(228.38 461.28) rotate(73.3)"> </text></g></svg>