<svg xmlns="http://www.w3.org/2000/svg" viewBox="0 0 1366 768"><defs><style>.cls-1{fill:#00f261;}.cls-2{fill:#005bea;}.cls-3{font-size:95.64px;}.cls-3,.cls-6,.cls-7,.cls-8{fill:#fff;}.cls-3,.cls-6{font-family:ArbutusSlab-Regular, Arbutus Slab;}.cls-4,.cls-5{fill:none;stroke:#fff;stroke-miterlimit:10;}.cls-4{stroke-width:1.66px;}.cls-5{stroke-width:0.66px;}.cls-6,.cls-7,.cls-8{font-size:15.12px;}.cls-7{font-family:ArialMT, Arial;}.cls-8{font-family:MyriadPro-Regular, Myriad Pro;}</style></defs><title>2</title><g id="bg_effect" data-name="bg effect"><path class="cls-1" d="M-7,452s211-68,241,108,154,21,187,96-34,132-34,132-24,48-48,54-366,0-366,0V452Z"/><path class="cls-2" d="M-25,434s211-68,241,108,154,21,187,96-34,132-34,132-24,48-48,54-366,0-366,0V434Z"/></g><g id="Seal"><text class="cls-3" transform="translate(95.62 690.97) rotate(-29.51)">HL</text><circle class="cls-4" cx="134.25" cy="626.25" r="110.75"/><circle class="cls-5" cx="136.24" cy="627.91" r="91.16"/><text class="cls-6" transform="matrix(0.12, 0.99, -0.99, 0.12, 230.53, 609.96)">H</text><text class="cls-6" transform="matrix(0.02, 1, -1, 0.02, 231.93, 621.95)">u</text><text class="cls-6" transform="translate(232.04 630.55) rotate(93.7)">s</text><text class="cls-6" transform="matrix(-0.14, 0.99, -0.99, -0.14, 231.6, 637.53)">s</text><text class="cls-6" transform="matrix(-0.22, 0.98, -0.98, -0.22, 230.68, 644.46)">a</text><text class="cls-6" transform="translate(228.8 652.72) rotate(106.34)">i</text><text class="cls-6" transform="translate(227.55 657.32) rotate(110.52)">n</text><text class="cls-6" transform="translate(224.23 665.97) rotate(114.72)"> </text><text class="cls-6" transform="translate(222.28 670.42) rotate(118.94)">L</text><text class="cls-6" transform="matrix(-0.56, 0.83, -0.83, -0.56, 217.81, 678.47)">o</text><text class="cls-6" transform="translate(213.13 685.4) rotate(129.34)">d</text><text class="cls-6" transform="translate(207.58 692.17) rotate(134.47)">g</text><text class="cls-6" transform="matrix(-0.76, 0.65, -0.65, -0.76, 201.68, 698.18)">e</text><text class="cls-6" transform="matrix(-0.8, 0.6, -0.6, -0.8, 195.52, 703.41)"> </text><text class="cls-7" transform="translate(191.65 706.38) rotate(146.88)">♠</text><text class="cls-7" transform="translate(185.02 710.64) rotate(150.43)"> </text><text class="cls-7" transform="translate(181.53 712.7) rotate(154)">♠</text><text class="cls-7" transform="matrix(-0.92, 0.38, -0.38, -0.92, 174.43, 716.1)"> </text><text class="cls-6" transform="matrix(-0.95, 0.32, -0.32, -0.95, 170.76, 717.7)">S</text><text class="cls-6" transform="matrix(-0.97, 0.25, -0.25, -0.97, 162.61, 720.39)">i</text><text class="cls-6" transform="translate(158 721.69) rotate(169.55)">n</text><text class="cls-6" transform="matrix(-1, 0.09, -0.09, -1, 148.92, 723.34)">c</text><text class="cls-6" transform="matrix(-1, 0.01, -0.01, -1, 141.37, 724.07)">e</text><text class="cls-6" transform="translate(133.31 724.14) rotate(-176.98)"> </text><text class="cls-6" transform="translate(128.43 723.9) rotate(-173.8)">1</text><text class="cls-6" transform="translate(122.64 723.34) rotate(-169.36)">9</text><text class="cls-6" transform="translate(113.61 721.66) rotate(-163.92)">6</text><text class="cls-6" transform="translate(104.82 719.13) rotate(-158.53)">8</text><text class="cls-7" transform="translate(96.42 715.74) rotate(-154.62)"> </text><text class="cls-7" transform="translate(92.74 714.07) rotate(-151.06)">♠</text><text class="cls-8" transform="matrix(-0.85, -0.53, 0.53, -0.85, 85.87, 710.2)"> </text><text class="cls-6" transform="translate(83.24 708.71) rotate(-143.63)">C</text><text class="cls-6" transform="matrix(-0.74, -0.67, 0.67, -0.74, 74.61, 702.28)">e</text><text class="cls-6" transform="translate(68.63 696.84) rotate(-134.19)">l</text><text class="cls-6" transform="translate(65.33 693.52) rotate(-130.44)">e</text><text class="cls-6" transform="translate(60.08 687.41) rotate(-125.47)">b</text><text class="cls-6" transform="matrix(-0.51, -0.86, 0.86, -0.51, 54.96, 680.16)">r</text><text class="cls-6" transform="translate(51.61 674.65) rotate(-116.49)">a</text><text class="cls-6" transform="matrix(-0.38, -0.93, 0.93, -0.38, 47.87, 667.06)">t</text><text class="cls-6" transform="translate(45.61 661.49) rotate(-108.92)">i</text><text class="cls-6" transform="matrix(-0.25, -0.97, 0.97, -0.25, 43.98, 656.99)">n</text><text class="cls-6" transform="translate(41.65 648.09) rotate(-99.45)">g</text><text class="cls-6" transform="translate(40.31 639.72) rotate(-95.47)"> </text><text class="cls-6" transform="translate(39.77 634.89) rotate(-91.37)">5</text><text class="cls-6" transform="translate(39.51 625.98) rotate(-85.61)">0</text><text class="cls-6" transform="translate(40.42 615.48) rotate(-81.07)"> </text><text class="cls-6" transform="translate(41.07 610.67) rotate(-76.7)">Y</text><text class="cls-6" transform="matrix(0.32, -0.95, 0.95, 0.32, 43.36, 601.09)">e</text><text class="cls-6" transform="translate(45.91 593.47) rotate(-66.49)">a</text><text class="cls-6" transform="matrix(0.47, -0.88, 0.88, 0.47, 49.31, 585.73)">r</text><text class="cls-6" transform="translate(52.31 580.04) rotate(-58.02)">s</text><text class="cls-6" transform="translate(56.05 574.1) rotate(-54.45)"> </text><text class="cls-6" transform="translate(58.76 570.06) rotate(-49.58)">O</text><text class="cls-6" transform="translate(66.21 561.49) rotate(-44.47)">f</text><text class="cls-6" transform="translate(70.38 557.4) rotate(-41.3)"> </text><text class="cls-6" transform="translate(74.01 554.13) rotate(-37.35)">S</text><text class="cls-6" transform="translate(80.81 548.94) rotate(-32.46)">e</text><text class="cls-6" transform="matrix(0.88, -0.47, 0.47, 0.88, 87.61, 544.64)">r</text><text class="cls-6" transform="translate(93.26 541.58) rotate(-23.94)">v</text><text class="cls-6" transform="translate(100.28 538.51) rotate(-20.21)">i</text><text class="cls-6" transform="translate(104.78 536.8) rotate(-16.48)">c</text><text class="cls-6" transform="translate(112.02 534.64) rotate(-11.82)">e</text><text class="cls-6" transform="translate(119.93 533.04) rotate(-7.95)"> </text><text class="cls-7" transform="matrix(1, -0.07, 0.07, 1, 124.76, 532.31)">♠</text><text class="cls-7" transform="translate(132.58 531.79) rotate(-0.64)"> </text><text class="cls-6" transform="translate(136.6 531.6) rotate(3.88)">G</text><text class="cls-6" transform="translate(147.72 532.41) rotate(9.64)">o</text><text class="cls-6" transform="matrix(0.97, 0.23, -0.23, 0.97, 156.02, 533.88)">l</text><text class="cls-6" transform="translate(160.61 534.9) rotate(17.54)">d</text><text class="cls-6" transform="translate(168.96 537.54) rotate(22.53)">e</text><text class="cls-6" transform="translate(176.39 540.59) rotate(27.69)">n</text><text class="cls-6" transform="matrix(0.85, 0.53, -0.53, 0.85, 184.55, 544.95)"> </text><text class="cls-6" transform="translate(188.73 547.45) rotate(36.15)">J</text><text class="cls-6" transform="translate(196.16 552.89) rotate(41.48)">u</text><text class="cls-6" transform="matrix(0.69, 0.73, -0.73, 0.69, 202.59, 558.54)">b</text><text class="cls-6" transform="matrix(0.63, 0.77, -0.77, 0.63, 208.66, 565.08)">i</text><text class="cls-6" transform="translate(211.71 568.8) rotate(53.49)">l</text><text class="cls-6" transform="translate(214.56 572.55) rotate(57.26)">e</text><text class="cls-6" transform="translate(218.92 579.31) rotate(62.05)">e</text><text class="cls-6" transform="translate(222.66 586.46) rotate(65.92)"> </text><text class="cls-7" transform="translate(224.69 590.86) rotate(69.73)">♠</text><text class="cls-7" transform="translate(227.37 598.27) rotate(73.3)"> </text></g></svg>