<svg xmlns="http://www.w3.org/2000/svg" id="train" viewBox="0 0 1024 1234" width="96" height="96" style="fill: rgb(0, 91, 234);"><path d="M792 1029H297q-28 0-37.5-23t4.5-54l91-190q9-21 31-37 72 48 158.5 48T703 725q22 16 31 37l91 190q14 31 4.5 54t-37.5 23zM432.5 841q-11.5-7-24.5-3.5T389 854l-32 60q-7 12-3.5 26t15 21 24.5 3.5 19-16.5l32-60q7-12 3.5-26t-15-21zM577 869q0-13-9.5-22.5t-23-9.5-22.5 9.5-9 22.5v64q0 13 9 22.5t22.5 9.5 23-9.5T577 933v-64zm155 45l-32-60q-6-13-19-16.5t-24.5 3.5-15 21 3.5 26l32 60q6 13 19 16.5t24.5-3.5 15-21-3.5-26zM544.5 709q-92.5 0-158-65.5T321 485q0-84 55-147t137-74V133q-27 0-46-18.5T448 69t19-45.5T513 5h64q26 0 45 18.5T641 69t-19 45.5-45 18.5v131q81 11 136.5 74T769 485q0 93-66 158.5T544.5 709zm0-256q-13.5 0-22.5 9.5t-9 22.5 9 22.5 22.5 9.5 23-9.5T577 485t-9.5-22.5-23-9.5z"/></svg>